<mxfile host="app.diagrams.net" agent="Mozilla/5.0 (Windows NT 10.0; Win64; x64) AppleWebKit/537.36 (KHTML, like Gecko) Chrome/129.0.0.0 Safari/537.36" version="24.8.0">
  <diagram name="第 1 页" id="xnKEibscb6I4ZrSzzH7E">
    <mxGraphModel dx="2048" dy="626" grid="1" gridSize="10" guides="1" tooltips="1" connect="1" arrows="1" fold="1" page="1" pageScale="1" pageWidth="827" pageHeight="1169" math="0" shadow="0">
      <root>
        <mxCell id="0" />
        <mxCell id="1" parent="0" />
        <mxCell id="bjvcLbFLlpnBdihvbMba-31" value="" style="rounded=0;whiteSpace=wrap;html=1;dashed=1;strokeWidth=2;sketch=1;curveFitting=1;jiggle=2;" vertex="1" parent="1">
          <mxGeometry x="479" y="159" width="160" height="261" as="geometry" />
        </mxCell>
        <mxCell id="bjvcLbFLlpnBdihvbMba-1" value="IS" style="rounded=1;whiteSpace=wrap;html=1;fontStyle=1;strokeWidth=2;sketch=1;curveFitting=1;jiggle=2;align=center;" vertex="1" parent="1">
          <mxGeometry x="499" y="171" width="120" height="159" as="geometry" />
        </mxCell>
        <mxCell id="bjvcLbFLlpnBdihvbMba-8" value="&lt;b&gt;模型推送&lt;/b&gt;" style="rounded=0;whiteSpace=wrap;html=1;strokeWidth=2;sketch=1;curveFitting=1;jiggle=2;" vertex="1" parent="1">
          <mxGeometry x="170" y="200" width="120" height="60" as="geometry" />
        </mxCell>
        <mxCell id="bjvcLbFLlpnBdihvbMba-9" value="&lt;b&gt;模型训练&lt;/b&gt;" style="rounded=0;whiteSpace=wrap;html=1;strokeWidth=2;sketch=1;curveFitting=1;jiggle=2;" vertex="1" parent="1">
          <mxGeometry x="-90" y="200" width="120" height="60" as="geometry" />
        </mxCell>
        <mxCell id="bjvcLbFLlpnBdihvbMba-12" value="" style="strokeWidth=2;html=1;shape=mxgraph.flowchart.database;whiteSpace=wrap;" vertex="1" parent="1">
          <mxGeometry x="-70" y="266" width="30" height="30" as="geometry" />
        </mxCell>
        <mxCell id="bjvcLbFLlpnBdihvbMba-21" value="&lt;b&gt;模型推送&lt;/b&gt;" style="rounded=1;whiteSpace=wrap;html=1;strokeWidth=2;" vertex="1" parent="1">
          <mxGeometry x="-370" y="340" width="120" height="60" as="geometry" />
        </mxCell>
        <mxCell id="bjvcLbFLlpnBdihvbMba-28" value="" style="sketch=0;outlineConnect=0;fontColor=#232F3E;gradientColor=none;fillColor=#01A88D;strokeColor=none;dashed=0;verticalLabelPosition=bottom;verticalAlign=top;align=center;html=1;fontSize=12;fontStyle=0;aspect=fixed;pointerEvents=1;shape=mxgraph.aws4.sagemaker_model;" vertex="1" parent="1">
          <mxGeometry x="-20" y="266" width="30" height="30" as="geometry" />
        </mxCell>
        <mxCell id="bjvcLbFLlpnBdihvbMba-42" style="edgeStyle=orthogonalEdgeStyle;rounded=0;orthogonalLoop=1;jettySize=auto;html=1;exitX=0;exitY=0.5;exitDx=0;exitDy=0;entryX=1;entryY=0.5;entryDx=0;entryDy=0;" edge="1" parent="1" source="bjvcLbFLlpnBdihvbMba-32" target="bjvcLbFLlpnBdihvbMba-31">
          <mxGeometry relative="1" as="geometry" />
        </mxCell>
        <mxCell id="bjvcLbFLlpnBdihvbMba-32" value="DBS" style="rounded=1;whiteSpace=wrap;html=1;fontStyle=1;strokeWidth=2;shadow=0;sketch=1;curveFitting=1;jiggle=2;" vertex="1" parent="1">
          <mxGeometry x="740" y="251" width="120" height="164" as="geometry" />
        </mxCell>
        <mxCell id="bjvcLbFLlpnBdihvbMba-41" style="edgeStyle=orthogonalEdgeStyle;rounded=0;orthogonalLoop=1;jettySize=auto;html=1;exitX=0.5;exitY=1;exitDx=0;exitDy=0;entryX=0.5;entryY=0;entryDx=0;entryDy=0;" edge="1" parent="1" source="bjvcLbFLlpnBdihvbMba-33" target="bjvcLbFLlpnBdihvbMba-32">
          <mxGeometry relative="1" as="geometry" />
        </mxCell>
        <mxCell id="bjvcLbFLlpnBdihvbMba-33" value="PDS" style="rounded=1;whiteSpace=wrap;html=1;fontStyle=1;strokeWidth=2;sketch=1;curveFitting=1;jiggle=2;" vertex="1" parent="1">
          <mxGeometry x="740" y="150" width="120" height="60" as="geometry" />
        </mxCell>
        <mxCell id="bjvcLbFLlpnBdihvbMba-34" value="&lt;span&gt;PS&lt;/span&gt;" style="rounded=0;whiteSpace=wrap;html=1;fontStyle=1;strokeWidth=2;glass=0;sketch=1;curveFitting=1;jiggle=2;" vertex="1" parent="1">
          <mxGeometry x="499" y="350" width="120" height="60" as="geometry" />
        </mxCell>
        <mxCell id="bjvcLbFLlpnBdihvbMba-37" value="特征抽取" style="rounded=0;whiteSpace=wrap;html=1;sketch=1;curveFitting=1;jiggle=2;" vertex="1" parent="1">
          <mxGeometry x="509" y="190" width="100" height="30" as="geometry" />
        </mxCell>
        <mxCell id="bjvcLbFLlpnBdihvbMba-39" value="参数查询" style="rounded=0;whiteSpace=wrap;html=1;sketch=1;curveFitting=1;jiggle=2;" vertex="1" parent="1">
          <mxGeometry x="509" y="240" width="100" height="30" as="geometry" />
        </mxCell>
        <mxCell id="bjvcLbFLlpnBdihvbMba-40" value="模型推理" style="rounded=0;whiteSpace=wrap;html=1;sketch=1;curveFitting=1;jiggle=2;" vertex="1" parent="1">
          <mxGeometry x="509" y="290" width="100" height="30" as="geometry" />
        </mxCell>
      </root>
    </mxGraphModel>
  </diagram>
</mxfile>
